<?xml version="1.0" encoding="utf-8"?>
<!-- Generator: Adobe Illustrator 16.0.0, SVG Export Plug-In . SVG Version: 6.00 Build 0)  -->
<!DOCTYPE svg PUBLIC "-//W3C//DTD SVG 1.1//EN" "http://www.w3.org/Graphics/SVG/1.1/DTD/svg11.dtd">
<svg version="1.1"
	 id="Layer_2" sodipodi:docname="Google Play logo.svg" inkscape:version="0.48.2 r9819" xmlns:dc="http://purl.org/dc/elements/1.1/" xmlns:svg="http://www.w3.org/2000/svg" xmlns:rdf="http://www.w3.org/1999/02/22-rdf-syntax-ns#" xmlns:cc="http://creativecommons.org/ns#" xmlns:inkscape="http://www.inkscape.org/namespaces/inkscape" xmlns:sodipodi="http://sodipodi.sourceforge.net/DTD/sodipodi-0.dtd"
	 xmlns="http://www.w3.org/2000/svg" xmlns:xlink="http://www.w3.org/1999/xlink" x="0px" y="0px" width="561.8px"
	 height="129.16px" viewBox="0 0 561.8 129.16" enable-background="new 0 0 561.8 129.16" xml:space="preserve">
<sodipodi:namedview  inkscape:pageshadow="2" inkscape:current-layer="Layer_2" inkscape:window-maximized="1" inkscape:window-y="-8" inkscape:window-x="-8" fit-margin-bottom="0" fit-margin-right="0" inkscape:window-height="837" inkscape:window-width="1600" inkscape:pageopacity="0" showgrid="false" fit-margin-top="0" inkscape:cx="296.25001" inkscape:cy="38.121103" fit-margin-left="0" inkscape:zoom="0.39645207" gridtolerance="10" objecttolerance="10" bordercolor="#666666" guidetolerance="10" borderopacity="1" pagecolor="#ffffff" id="namedview51">
	</sodipodi:namedview>
<linearGradient id="path16_1_" gradientUnits="userSpaceOnUse" x1="339.3931" y1="-276.5974" x2="323.0742" y2="-244.5699" gradientTransform="matrix(1 0 0 -1 -237.23 -198.6899)">
	<stop  offset="0" style="stop-color:#FCD08F"/>
	<stop  offset="1" style="stop-color:#F79673"/>
</linearGradient>
<path id="path16" inkscape:connector-curvature="0" fill="url(#path16_1_)" d="M89.178,84.523
	c15.287-8.367,26.962-14.759,28.024-15.34c3.168-1.734,6.487-6.159,0-9.696c-2.085-1.14-13.446-7.334-28.042-15.297L69.085,64.418
	L89.178,84.523L89.178,84.523z"/>
<linearGradient id="path23_1_" gradientUnits="userSpaceOnUse" x1="315.6646" y1="-271.8274" x2="253.5294" y2="-338.4591" gradientTransform="matrix(1 0 0 -1 -237.23 -198.6899)">
	<stop  offset="0" style="stop-color:#E74047"/>
	<stop  offset="1" style="stop-color:#7F50A0"/>
</linearGradient>
<path id="path23" inkscape:connector-curvature="0" fill="url(#path23_1_)" d="M69.084,64.418L4.876,129.116
	c1.45,0.184,3.194-0.2,5.2-1.298c4.153-2.273,48.753-26.687,79.102-43.298L69.084,64.418z"/>
<linearGradient id="path30_1_" gradientUnits="userSpaceOnUse" x1="315.9956" y1="-253.759" x2="252.8747" y2="-188.3953" gradientTransform="matrix(1 0 0 -1 -237.23 -198.6899)">
	<stop  offset="0" style="stop-color:#E6FFAB"/>
	<stop  offset="1" style="stop-color:#47BEBC"/>
</linearGradient>
<path id="path30" inkscape:connector-curvature="0" fill="url(#path30_1_)" d="M69.084,64.418L89.159,44.19
	c0,0-74.616-40.709-79.083-43.146C8.359,0.107,6.487-0.22,4.83,0.149L69.084,64.418z"/>
<linearGradient id="path37_1_" gradientUnits="userSpaceOnUse" x1="271.7715" y1="-327.8059" x2="271.7715" y2="-198.8396" gradientTransform="matrix(1 0 0 -1 -237.23 -198.6899)">
	<stop  offset="0" style="stop-color:#84E9DB"/>
	<stop  offset="1" style="stop-color:#197491"/>
</linearGradient>
<path id="path37" inkscape:connector-curvature="0" fill="url(#path37_1_)" d="M69.084,64.418L4.829,0.15
	C2.175,0.741,0,3.038,0,7.656c0,7.5,0,107.453,0,113.75c0,4.348,1.711,7.406,4.875,7.711L69.084,64.418z"/>
</svg>
