<?xml version="1.0" standalone="no"?>
<!DOCTYPE svg PUBLIC "-//W3C//DTD SVG 20010904//EN"
 "http://www.w3.org/TR/2001/REC-SVG-20010904/DTD/svg10.dtd">
<svg version="1.0" xmlns="http://www.w3.org/2000/svg"
 width="677.000000pt" height="736.000000pt" viewBox="0 0 677.000000 736.000000"
 preserveAspectRatio="xMidYMid meet">
<metadata>
Created by potrace 1.10, written by Peter Selinger 2001-2011
</metadata>
<g transform="translate(0.000000,736.000000) scale(0.100000,-0.100000)"
fill="#000000" stroke="none">
<path d="M258 7257 c-86 -25 -183 -108 -219 -190 l-24 -52 4 -2065 c2 -1136 6
-2648 10 -3360 l6 -1295 29 -60 c43 -87 136 -177 211 -205 121 -44 212 -37
340 28 91 47 317 171 1725 947 2240 1235 2725 1502 2785 1532 119 61 1580 895
1596 911 21 22 49 106 49 149 0 43 -39 119 -82 159 -45 42 -1660 984 -1687
984 -3 0 -257 -251 -564 -559 l-557 -558 -73 72 c-39 40 -370 361 -735 715
-378 366 -659 646 -656 652 4 7 2 8 -4 4 -6 -3 -16 3 -22 14 -9 17 -8 20 10
20 14 0 19 4 14 13 -5 7 -2 7 10 -2 9 -8 16 -10 14 -5 -4 14 28 55 37 46 5 -4
5 -1 1 6 -5 8 1 23 15 38 12 13 19 24 15 24 -5 0 -3 7 4 15 6 8 9 19 5 24 -4
7 1 8 11 4 14 -5 16 -2 10 20 -5 22 -2 28 18 33 14 3 30 3 37 -2 8 -4 9 -3 5
4 -4 7 -2 12 4 12 6 0 8 5 4 11 -5 8 -9 8 -14 -1 -6 -10 -12 -10 -26 0 -16 9
-16 11 -2 6 10 -3 20 -1 23 5 4 5 10 7 15 4 4 -3 13 2 19 9 8 9 8 16 2 20 -5
4 0 17 12 30 17 20 25 22 41 14 16 -9 18 -7 13 6 -4 10 -1 16 7 16 8 0 19 14
25 30 5 17 15 30 20 30 6 0 8 7 4 16 -3 9 0 20 8 26 11 8 11 11 1 15 -10 4
-10 9 3 23 10 11 24 16 33 13 10 -4 13 -2 8 5 -4 7 -1 15 8 18 9 3 16 12 16
19 0 7 7 16 16 19 8 3 12 11 8 17 -4 7 -3 9 2 6 19 -11 37 9 26 29 -5 11 -6
28 -1 39 7 18 8 18 8 -5 1 -19 7 -26 23 -27 18 -2 20 0 8 7 -8 5 -10 10 -5 10
6 0 3 5 -5 10 -12 8 -11 10 6 10 11 0 29 7 40 16 18 15 18 15 -3 5 -16 -8 -24
-8 -29 1 -4 6 -3 9 2 5 5 -3 18 1 29 9 19 14 19 14 -1 14 -18 1 -18 1 0 11 14
9 21 8 28 -2 8 -11 9 -10 4 4 -3 11 0 20 10 24 15 6 -26 29 -756 433 -703 388
-1143 631 -1365 755 -415 230 -406 226 -487 231 -43 2 -92 -1 -120 -9z"/>
</g>
</svg>
